<?xml version="1.0" encoding="iso-8859-1"?>
<!-- Generator: Adobe Illustrator 19.0.0, SVG Export Plug-In . SVG Version: 6.00 Build 0)  -->
<svg version="1.1" id="Layer_1" xmlns="http://www.w3.org/2000/svg" xmlns:xlink="http://www.w3.org/1999/xlink" x="0px" y="0px"
	 viewBox="0 0 512.002 512.002" style="enable-background:new 0 0 512.002 512.002;" xml:space="preserve">
<g>
	<path style="fill:#FF2C47;" d="M273.533,158.596c6.354-2.1,41.073-19.831,58.785-38.836c1.221-1.399,2.35-2.805,3.366-4.217
		c1.226,3.277,14.116,34.226,44.131,36.203h0.096c1.903-17.371,2.263-34.719-1.486-47.273
		c-17.795-59.575-66.548-93.803-122.425-93.808c-55.879,0-104.629,34.234-122.425,93.808c-3.75,12.555-3.391,29.902-1.487,47.273
		l0.096,0.002c0,0,74.294-7.938,106.95-29.236l11.586,27.799C257.227,165.927,254.013,165.042,273.533,158.596z"/>
	<path style="fill:#FF9600;" d="M273.533,158.596c-19.52,6.446-16.306,7.331-22.813-8.286l-11.586-27.799
		c-32.655,21.298-106.95,29.236-106.948,29.234h-0.098c2.507,22.885,7.691,45.807,9.67,57.845
		c1.749,10.618,3.44,19.491,5.186,27.002c2.832,12.188,5.812,20.777,9.412,27.383c8.488,15.573,20.435,20.124,42.112,34.828
		c38.089,21.987,76.898,22.029,115.061-0.004c21.677-14.702,33.625-19.253,42.101-34.832c3.615-6.598,6.593-15.186,9.427-27.374
		c1.745-7.509,3.436-16.383,5.184-27.002c1.981-12.038,7.164-34.958,9.669-57.845h-0.096c-30.015-1.978-42.906-32.926-44.131-36.203
		c-1.017,1.411-2.146,2.818-3.366,4.217C314.606,138.766,279.887,156.496,273.533,158.596z"/>
	<g>
		<path style="fill:#00E588;" d="M146.944,236.591c-1.747-7.509-3.438-16.383-5.186-27.002c-1.979-12.036-7.164-34.958-9.67-57.845
			H116.64c-14.092,0-25.618,11.528-25.618,25.616v33.613c0,14.091,11.531,25.617,25.618,25.617H146.944z"/>
		<path style="fill:#00E588;" d="M379.913,151.746c-2.507,22.885-7.689,45.805-9.669,57.845c-1.749,10.618-3.44,19.491-5.184,27.002
			h30.304c14.088,0,25.618-11.526,25.618-25.617v-33.613c0-14.089-11.526-25.616-25.618-25.616H379.913z"/>
	</g>
	<path style="fill:#009FD3;" d="M474.668,458.662c0-84.877-48.363-158.461-119.036-194.697
		c-8.475,15.579-20.424,20.13-42.101,34.832c-38.163,22.033-76.972,21.992-115.061,0.004
		c-21.677-14.704-33.625-19.256-42.101-34.836C85.696,300.202,37.335,373.787,37.335,458.662h77.867L96,394.664h320.002
		l-19.198,63.998H474.668z"/>
	<polygon style="fill:#00E58B;" points="416.003,394.664 96.001,394.664 115.202,458.662 128.002,501.33 384.002,501.33 
		396.804,458.662 	"/>
</g>
<g>
	<path style="fill:#000003;" d="M128.496,336.827c-4.499-3.802-11.228-3.237-15.033,1.262c-1.468,1.738-2.921,3.52-4.317,5.299
		c-3.638,4.634-2.831,11.339,1.803,14.976c1.953,1.535,4.275,2.277,6.579,2.277c3.163,0,6.292-1.401,8.397-4.08
		c1.238-1.578,2.528-3.159,3.831-4.701C133.56,347.36,132.995,340.63,128.496,336.827z"/>
	<path style="fill:#000003;" d="M325.299,127.789c2.023,1.769,4.524,2.636,7.016,2.636c2.971,0,5.928-1.234,8.035-3.647
		c1.469-1.68,2.811-3.362,3.99-5.001c3.442-4.78,2.359-11.446-2.421-14.89c-4.781-3.443-11.446-2.358-14.89,2.421
		c-0.79,1.098-1.714,2.251-2.742,3.429C320.41,117.174,320.863,123.912,325.299,127.789z"/>
	<path style="fill:#000003;" d="M501.335,447.995h-16.254c-1.812-39.245-13.6-77.268-34.378-110.568
		c-20.219-32.404-48.171-59.207-81.219-78.058c1.372-3.602,2.658-7.61,3.891-12.111h21.989c20.007,0,36.283-16.277,36.283-36.284
		v-33.613c0-20.007-16.276-36.283-36.283-36.283h-3.785c0.926-14.488,0.416-28.445-2.935-39.659
		c-9.25-30.97-26.802-56.811-50.762-74.732C314.542,9.23,286.227,0.001,256.001,0c-30.226,0-58.541,9.228-81.883,26.688
		c-23.957,17.92-41.512,43.761-50.764,74.732c-3.35,11.214-3.859,25.171-2.933,39.66h-3.782c-20.007,0-36.283,16.276-36.283,36.283
		v33.613c0,20.007,16.276,36.284,36.283,36.284h21.988c1.233,4.502,2.519,8.51,3.891,12.111
		c-33.046,18.85-60.999,45.653-81.218,78.059c-20.778,33.302-32.564,71.322-34.377,110.567H10.668
		c-5.89,0-10.667,4.777-10.667,10.667c0,5.89,4.777,10.667,10.667,10.667h26.667h69.93l10.52,35.067
		c1.354,4.511,5.506,7.601,10.217,7.601h209.926c0.017,0,0.032,0.003,0.048,0.003c0.025,0,0.05-0.003,0.075-0.003h45.951
		c4.71,0,8.864-3.09,10.217-7.601l10.52-35.067h69.93h26.667c5.89,0,10.667-4.777,10.667-10.667
		C512.002,452.772,507.225,447.995,501.335,447.995z M395.365,162.413c8.243,0,14.949,6.706,14.949,14.949v33.613
		c0,8.244-6.706,14.951-14.949,14.951h-17.175c0.86-4.507,1.714-9.355,2.578-14.602c0.56-3.404,1.405-7.806,2.382-12.904
		c2.017-10.512,4.419-23.041,6.211-36.007h6.003V162.413z M143.796,107.526c15.883-53.166,58.876-86.193,112.206-86.193
		c53.332,0.002,96.326,33.028,112.203,86.194c3.194,10.688,2.919,25.987,1.264,41.675c-0.201,0.817-0.318,1.665-0.318,2.544
		c0,0.077,0.011,0.153,0.012,0.228c-1.764,15.31-4.723,30.751-6.962,42.426c-1.006,5.245-1.875,9.775-2.481,13.457
		c-1.487,9.032-2.882,16.655-4.285,23.172c-15.733,14.299-42.51,24.087-69.696,26.406c-0.771-5.134-5.187-9.074-10.536-9.074
		h-19.201c-5.89,0-10.667,4.777-10.667,10.667v8.533c0,0.115,0.014,0.227,0.018,0.34c0.006,0.213,0.013,0.427,0.031,0.638
		c0.014,0.148,0.036,0.292,0.057,0.439c0.027,0.203,0.054,0.405,0.092,0.604c0.031,0.159,0.07,0.316,0.108,0.473
		c0.044,0.178,0.085,0.356,0.138,0.532c0.05,0.171,0.109,0.336,0.169,0.503c0.054,0.156,0.109,0.314,0.171,0.467
		c0.068,0.173,0.148,0.34,0.227,0.509c0.067,0.142,0.131,0.285,0.203,0.422c0.086,0.165,0.182,0.327,0.277,0.487
		c0.08,0.134,0.158,0.27,0.242,0.401c0.1,0.151,0.206,0.298,0.313,0.444c0.096,0.132,0.192,0.265,0.293,0.393
		c0.107,0.133,0.219,0.26,0.332,0.387c0.115,0.131,0.231,0.262,0.353,0.388c0.111,0.114,0.226,0.222,0.341,0.331
		c0.135,0.128,0.271,0.255,0.413,0.375c0.115,0.098,0.237,0.19,0.355,0.284c0.153,0.117,0.303,0.235,0.461,0.343
		c0.125,0.086,0.254,0.166,0.383,0.249c0.16,0.102,0.321,0.203,0.487,0.295c0.141,0.079,0.287,0.151,0.431,0.223
		c0.16,0.081,0.321,0.162,0.487,0.236c0.164,0.071,0.334,0.135,0.505,0.201c0.153,0.058,0.304,0.117,0.462,0.169
		c0.191,0.063,0.385,0.113,0.58,0.165c0.146,0.038,0.289,0.079,0.437,0.112c0.204,0.045,0.413,0.077,0.621,0.111
		c0.114,0.018,0.225,0.046,0.34,0.061c0.067,0.009,0.135,0.014,0.203,0.021c0.027,0.003,0.052,0.006,0.079,0.01
		c6.076,0.756,12.273,1.126,18.513,1.126c24.068,0,48.73-5.449,69.066-14.911c-5.082,6.342-11.688,10.548-21.194,16.594
		c-3.97,2.525-8.46,5.38-13.457,8.762c-17.228,9.885-34.68,14.895-51.877,14.895c-17.194,0-34.642-5.009-51.866-14.889
		c-4.997-3.381-9.486-6.237-13.456-8.763c-18.938-12.047-26.378-16.782-33.147-45.683c-0.09-0.743-0.256-1.462-0.492-2.153
		c-1.561-6.966-3.1-15.265-4.751-25.295c-0.606-3.685-1.476-8.221-2.483-13.472c-1.797-9.372-4.059-21.175-5.794-33.385
		c19.584-2.735,61.573-9.824,89.863-23.396l7.005,16.807c0.716,1.719,1.31,3.231,1.826,4.549c2.357,6,4.583,11.667,11.252,13.915
		c1.598,0.539,3.134,0.778,4.705,0.777c3.73,0,7.665-1.344,13.119-3.206c1.499-0.513,3.189-1.09,5.097-1.719
		c7.397-2.439,22.243-9.801,36.305-19.149c4.906-3.262,6.238-9.883,2.976-14.788c-3.263-4.907-9.884-6.237-14.788-2.976
		c-13.119,8.722-26.127,14.99-31.179,16.655c-1.989,0.657-3.747,1.258-5.307,1.79c-0.779,0.266-1.586,0.542-2.364,0.803
		c-0.555-1.411-1.188-3.023-1.951-4.853l-11.586-27.8c-1.219-2.925-3.676-5.157-6.704-6.091c-3.031-0.933-6.316-0.471-8.969,1.26
		c-23.074,15.049-70.398,23.175-91.589,26.185C140.911,127.512,141.248,116.05,143.796,107.526z M116.638,225.925
		c-8.243,0-14.949-6.706-14.949-14.951v-33.613c0-8.243,6.706-14.949,14.949-14.949h6.002c1.792,12.959,4.193,25.485,6.208,35.992
		c0.978,5.103,1.824,9.51,2.384,12.918c0.864,5.248,1.719,10.096,2.578,14.602h-17.172V225.925z M376.065,490.663h-24.196
		l4.441-16.576c1.525-5.691-1.852-11.539-7.542-13.064c-5.694-1.526-11.54,1.853-13.064,7.542l-5.92,22.097H135.938l-10.524-35.078
		c-0.016-0.053-0.03-0.106-0.047-0.158l-15.03-50.097h23.512l5.92,22.096c1.277,4.766,5.586,7.909,10.297,7.909
		c0.912,0,1.843-0.118,2.767-0.367c5.691-1.524,9.068-7.373,7.542-13.064l-4.441-16.575h245.732l-15.044,50.145
		c-0.003,0.013-0.006,0.025-0.011,0.037L376.065,490.663z M411.139,447.995l15.081-50.266c0.969-3.23,0.354-6.729-1.659-9.434
		c-2.014-2.705-5.186-4.299-8.558-4.299H96.001c-3.372,0-6.545,1.594-8.558,4.299c-2.013,2.705-2.627,6.203-1.659,9.434
		l15.081,50.266H48.271c3.579-71.001,42.769-134.694,104.613-169.987c4.619,5.669,10.165,10.182,17.119,14.945
		c-10.396,5.405-20.314,11.795-29.485,19.017c-4.628,3.646-5.425,10.352-1.78,14.98c2.106,2.672,5.23,4.067,8.387,4.067
		c2.309,0,4.637-0.747,6.593-2.287c8.378-6.598,17.455-12.42,26.987-17.306l9.878-5.067c0.633,0.422,1.252,0.832,1.899,1.27
		l0.654,0.411c20.615,11.9,41.762,17.935,62.859,17.935c0.001,0,0.001,0,0.002,0c21.097,0,42.249-6.036,62.868-17.94l0.653-0.41
		c4.869-3.302,9.327-6.138,13.261-8.639c11.505-7.316,19.841-13.003,26.337-20.977c61.846,35.294,101.037,98.987,104.616,169.987
		L411.139,447.995L411.139,447.995z"/>
	<path style="fill:#000003;" d="M169.069,454.348c-1.525-5.689-7.369-9.065-13.066-7.54c-5.691,1.526-9.066,7.376-7.54,13.066
		l1.246,4.645c1.278,4.765,5.587,7.907,10.297,7.907c0.913,0,1.844-0.118,2.769-0.367c5.691-1.526,9.066-7.376,7.54-13.066
		L169.069,454.348z"/>
	<path style="fill:#000003;" d="M358.708,423.933c-5.688-1.53-11.538,1.849-13.066,7.538l-1.246,4.644
		c-1.527,5.69,1.847,11.539,7.538,13.066c0.925,0.249,1.855,0.368,2.77,0.368c4.708,0,9.018-3.141,10.296-7.906l1.246-4.644
		C367.773,431.31,364.398,425.46,358.708,423.933z"/>
</g>
<g>
</g>
<g>
</g>
<g>
</g>
<g>
</g>
<g>
</g>
<g>
</g>
<g>
</g>
<g>
</g>
<g>
</g>
<g>
</g>
<g>
</g>
<g>
</g>
<g>
</g>
<g>
</g>
<g>
</g>
</svg>
